<svg width="24" height="24" xmlns="http://www.w3.org/2000/svg" version="1.1">

 <g>
  <title>Layer 1</title>
  <g stroke="null" id="surface1">
   <path stroke="null" id="svg_1" fill-rule="nonzero" fill="rgb(13.72549%,12.156863%,12.54902%)" d="m23.88862,13.39289l-1.27178,-4.11139c0,0.00672 0,0.00672 0,0.00672c0,0 0,-0.00672 0,-0.00672l-2.5301,-8.15553c-0.14131,-0.43065 -0.51813,-0.72 -0.9555,-0.72c-0.43739,0.00674 -0.80748,0.28935 -0.94207,0.72674l-2.40224,7.73831l-7.5701,0l-2.40224,-7.73831c-0.13459,-0.43739 -0.50468,-0.72 -0.94207,-0.72674c-0.00672,0 -0.00672,0 -0.00672,0c-0.43065,0 -0.81421,0.28935 -0.9488,0.72674l-2.52336,8.1488c0,0 0,0.00672 0,0.00672c0,0 0,0 0,-0.00672l-1.27851,4.11139c-0.19514,0.61907 0.01347,1.2987 0.51813,1.68226l11.03553,8.40448c0,0 0.00674,0 0.00674,0c0,0.00674 0.00674,0.00674 0.01345,0.01347c-0.00672,-0.00674 -0.00672,-0.00674 -0.01345,-0.01347c0,0 0,0.00674 0,0.00674c0,0 0,0 0.00674,0c0.01345,0.01345 0.03364,0.02019 0.0471,0.03364c0.00674,0 0.00674,0 0.01345,0.00674c0,0 0.00674,0 0.00674,0c0,0.00672 0.00674,0.00672 0.00674,0.00672c0.01345,0.00674 0.02017,0.00674 0.03364,0.01347c0.00672,0 0.01345,0.00672 0.02691,0.01345c0.00674,0 0.00674,0 0.00674,0c0,0 0.00672,0 0.00672,0c0,0 0,0.00672 0.00674,0.00672c0.01345,0 0.02692,0.00674 0.04038,0.00674c0.00672,0 0.01345,0.00674 0.02019,0.00674c0,0 0.00672,0 0.00672,0c0,0 0.00674,0 0.00674,0c0,0.00672 0.00674,0 0.00674,0.00672c0.02691,0 0.05383,0.00674 0.08074,0.00674c0.02692,0 0.05383,-0.00674 0.08076,-0.00674c0.00672,-0.00672 0.00672,0 0.00672,-0.00672c0.00674,0 0.00674,0 0.01345,0c0.00674,0 0.00674,0 0.00674,0c0.00674,0 0.00674,-0.00674 0.01345,-0.00674c0.01347,0 0.02692,-0.00674 0.04038,-0.00674c0,0 0,0 0.00674,0c0,0 0,-0.00672 0.00672,-0.00672c0,0 0.00674,0 0.00674,0c0,0 0,0 0.00674,0c0.00672,-0.00674 0.02017,-0.01345 0.02691,-0.01345c0.01345,-0.00674 0.02019,-0.00674 0.02692,-0.01347c0.00672,0 0.00672,0 0.00672,-0.00672c0,0 0.00674,0 0.00674,0c0,0 0.00672,0 0.00672,0c0,-0.00674 0.00674,-0.00674 0.00674,-0.00674c0.02019,-0.01345 0.03364,-0.02019 0.05383,-0.03364c0,0 0,0 0.00674,-0.00674l11.04224,-8.40448c0.49796,-0.38356 0.70655,-1.06318 0.51813,-1.68226zm-4.75066,-11.50654l2.16673,6.98467l-4.33345,0l2.16673,-6.98467zm1.78319,8.16897l-0.8815,1.1843l-6.51365,8.75442l3.08187,-9.93872l4.31328,0zm-9.45421,13.12825c0,0 0,0 0,0.00672c0,-0.00672 0,-0.00672 0,-0.00672zm-0.98916,-3.18953l-7.39515,-9.93872l4.31328,0l3.08187,9.93872zm-5.61196,-18.10769l2.16673,6.98467l-4.32674,0l2.16001,-6.98467zm-3.56637,12.23328c-0.10766,-0.08076 -0.15476,-0.22878 -0.11438,-0.35663l0.94878,-3.0617l6.9645,9.36002l-7.7989,-5.94169zm10.34918,9.33982c0,0 -0.00674,0 -0.00674,0c0,0 0,0 0,-0.00672c-0.00674,0 -0.00674,-0.00674 -0.01345,-0.00674c-0.00674,-0.00672 -0.01347,-0.01345 -0.02019,-0.02691c0,0 0,0.00672 0,0.00672c0.02019,0.01347 0.03364,0.03364 0.05383,0.04711c0,0 -0.00674,-0.00674 -0.01345,-0.01347zm0.3499,-2.3686l-1.81009,-5.84748l-1.6015,-5.18805l6.83664,0l-3.42505,11.03553zm0.37009,2.35515c0,0 -0.00672,0.00674 -0.01345,0.00674c0,0.00672 0,0.00672 0,0.00672c0,0 0,0 -0.00672,0.00674c0,0 -0.00674,0.00674 -0.01347,0.00674c0,0 0,0 0.00674,0c0.01345,-0.01347 0.03364,-0.03364 0.0471,-0.04711c0.00674,0 0.00674,0 0.00674,-0.00672c-0.00674,0.01345 -0.01345,0.02019 -0.02692,0.02691zm10.33571,-9.32636l-7.79888,5.93496l6.9645,-9.35329l0.94878,3.05496c0.04038,0.13459 -0.00674,0.28261 -0.1144,0.36337zm0,0"/>
  </g>
 </g>
</svg>